# xmcd CD database file
#
# Track frame offsets:
#	150
#	18715
#	39388
#	56587
#	78831
#	93170
#	112558
#	130774
#	151298
#	172786
#	186357
#	207392
#	228151
#	241655
#	261852
#	279030
#	302044
#	317231
#
# Disc length: 4478 seconds
#
# Revision: 0
# Processed by: cddbd v1.5.2PL0 Copyright (c) Steve Scherf et al.
# Submitted via: CDex 1.51
#
DISCID=d7117c12
DTITLE=U2 - U218 Singles
DYEAR=1900
DGENRE=Blues
TTITLE0=U2 - Beautiful Day
TTITLE1=U2 - I Still Haven't Found What I'm Looking For
TTITLE2=U2 - Pride (In the Name of Love)
TTITLE3=U2 - With or Without You
TTITLE4=U2 - Vertigo
TTITLE5=U2 - New Year's Day
TTITLE6=U2 - Mysterious Ways
TTITLE7=U2 - Stuck in a Moment You Can't Get Out Of
TTITLE8=U2 - Where the Streets Have No Name
TTITLE9=U2 - Sweetest Thing
TTITLE10=U2 - Sunday Bloody Sunday
TTITLE11=U2 - One
TTITLE12=U2 - Desire
TTITLE13=U2 - Walk On
TTITLE14=U2 - Elevation
TTITLE15=U2 - Sometimes You Can't Make It on Your Own
TTITLE16=U2 - Saints Are Coming
TTITLE17=U2 - Window in the Skies
EXTD=
EXTT0=
EXTT1=
EXTT2=
EXTT3=
EXTT4=
EXTT5=
EXTT6=
EXTT7=
EXTT8=
EXTT9=
EXTT10=
EXTT11=
EXTT12=
EXTT13=
EXTT14=
EXTT15=
EXTT16=
EXTT17=
PLAYORDER=
